<?xml version="1.0" encoding="UTF-8" standalone="no"?>
<!-- Created with Inkscape (http://www.inkscape.org/) -->

<svg
   width="2.5667093mm"
   height="2.5667133mm"
   viewBox="0 0 2.5667092 2.5667133"
   version="1.1"
   id="svg10380"
   inkscape:version="1.1.1 (3bf5ae0d25, 2021-09-20, custom)"
   sodipodi:docname="instagram.svg"
   xmlns:inkscape="http://www.inkscape.org/namespaces/inkscape"
   xmlns:sodipodi="http://sodipodi.sourceforge.net/DTD/sodipodi-0.dtd"
   xmlns="http://www.w3.org/2000/svg"
   xmlns:svg="http://www.w3.org/2000/svg">
  <sodipodi:namedview
     id="namedview10382"
     pagecolor="#ffffff"
     bordercolor="#666666"
     borderopacity="1.0"
     inkscape:pageshadow="2"
     inkscape:pageopacity="0.0"
     inkscape:pagecheckerboard="0"
     inkscape:document-units="mm"
     showgrid="false"
     inkscape:zoom="11.021008"
     inkscape:cx="13.383531"
     inkscape:cy="-4.7182618"
     inkscape:window-width="1920"
     inkscape:window-height="1046"
     inkscape:window-x="0"
     inkscape:window-y="34"
     inkscape:window-maximized="1"
     inkscape:current-layer="layer1">
    <sodipodi:guide
       position="-41.098876,26.998014"
       orientation="415.74803,0"
       id="guide10590" />
    <sodipodi:guide
       position="-41.098876,-83.001977"
       orientation="0,831.49606"
       id="guide10592" />
    <sodipodi:guide
       position="178.90111,-83.001977"
       orientation="-415.74803,0"
       id="guide10594" />
    <sodipodi:guide
       position="178.90111,26.998014"
       orientation="0,-831.49606"
       id="guide10596" />
  </sodipodi:namedview>
  <defs
     id="defs10377">
    <rect
       x="141.90509"
       y="30.598164"
       width="402.03174"
       height="107.77201"
       id="rect14615" />
    <clipPath
       clipPathUnits="userSpaceOnUse"
       id="clipPath135244-6">
      <rect
         style="fill:url(#linearGradient135248);fill-opacity:1;fill-rule:evenodd;stroke-width:0.499996;stroke-linecap:round"
         id="rect135246-7"
         width="297"
         height="210"
         x="-158.89406"
         y="279.21216"
         transform="scale(-1,1)" />
    </clipPath>
    <clipPath
       clipPathUnits="userSpaceOnUse"
       id="clipPath261195">
      <rect
         style="fill:url(#linearGradient261199);fill-opacity:1;fill-rule:evenodd;stroke-width:0.499996;stroke-linecap:round"
         id="rect261197"
         width="297"
         height="210"
         x="-158.89406"
         y="279.21216"
         transform="scale(-1,1)" />
    </clipPath>
  </defs>
  <g
     inkscape:label="Layer 1"
     inkscape:groupmode="layer"
     id="layer1"
     transform="translate(84.9188,-81.924225)">
    <path
       id="path164716"
       style="fill:#ff084d;fill-opacity:1;stroke-width:72.2055"
       d="m -83.634862,81.924244 c -0.20528,6.1e-5 -0.41059,0.003 -0.52876,0.008 -0.20769,0.01 -0.39089,0.0599 -0.53858,0.20758 -0.24684,0.24683 -0.21529,0.57944 -0.21529,1.06722 0,0.49922 -0.0278,0.82413 0.21529,1.06722 0.24778,0.247681 0.58521,0.215281 1.06721,0.215281 0.49452,0 0.66521,3.2e-4 0.84007,-0.0674 0.23774,-0.0923 0.41719,-0.3048 0.43473,-0.686491 0.0111,-0.23624 0.0105,-0.82102 0,-1.05738 -0.0212,-0.450559 -0.26298,-0.72381 -0.74606,-0.746049 -0.11807,-0.005 -0.32332,-0.008 -0.52861,-0.008 z m -0.005,0.227941 0.005,0.003 c 0.56992,0 1.01706,-0.0597 1.0439,0.53324 0.006,0.13528 0.008,0.17592 0.008,0.51837 -1.1e-4,0.52852 0.01,0.74423 -0.14908,0.90401 -0.16181,0.16181 -0.3863,0.14737 -0.90562,0.14737 -0.53473,0 -0.74916,0.008 -0.90562,-0.14898 -0.18021,-0.17935 -0.14758,-0.46735 -0.14758,-0.90401 0,-0.59088 -0.0606,-1.01642 0.53237,-1.04679 0.13625,-0.005 0.17635,-0.006 0.51933,-0.006 z m 0.68927,0.21646 a 0.15389562,0.15389562 0 0 0 -0.15389,0.153899 0.15389562,0.15389562 0 0 0 0.15389,0.15389 0.15389562,0.15389562 0 0 0 0.15389,-0.15389 0.15389562,0.15389562 0 0 0 -0.15389,-0.153899 z m -0.68467,0.179879 c -0.36394,0 -0.65858,0.294961 -0.65858,0.65858 0,0.36394 0.29496,0.65857 0.65858,0.65857 0.36394,0 0.65857,-0.29496 0.65857,-0.65857 0,-0.36394 -0.29495,-0.65858 -0.65857,-0.65858 z m 0,0.23111 c 0.23614,0 0.42747,0.19133 0.42747,0.42747 1e-4,0.236131 -0.19122,0.42746 -0.42747,0.42746 -0.23624,0 -0.42746,-0.191329 -0.42746,-0.42746 0,-0.23614 0.19132,-0.42747 0.42746,-0.42747 z" />
    <path
       id="path164732"
       style="fill:#ff084d;fill-opacity:1;stroke-width:72.2049"
       d="m -87.18829,81.924234 c -0.20529,7e-5 -0.4104,0.003 -0.52857,0.008 -0.2077,0.01 -0.39101,0.0599 -0.53871,0.20763 -0.24684,0.24683 -0.21529,0.5795 -0.21529,1.06728 0,0.49922 -0.0278,0.82419 0.21529,1.06728 0.24779,0.24769 0.58527,0.21528 1.06728,0.21528 0.49451,0 0.66503,3e-4 0.8399,-0.0674 0.23773,-0.0923 0.41722,-0.30489 0.43476,-0.68658 0.0111,-0.23625 0.0105,-0.82105 0,-1.0574 -0.0212,-0.45057 -0.263,-0.72384 -0.74608,-0.74609 -0.11807,-0.005 -0.3233,-0.008 -0.52858,-0.008 z m -0.005,0.22788 0.005,0.003 c 0.56991,0 1.01697,-0.0596 1.04382,0.53327 0.006,0.13529 0.007,0.17577 0.007,0.51821 -1e-4,0.52853 0.01,0.74431 -0.14912,0.90409 -0.14326,0.14326 -0.33651,0.14835 -0.73917,0.14763 v -0.7309 h 0.31132 l 0.0494,-0.39674 h -0.36071 v -0.27355 c 1e-4,-0.11472 0.031,-0.19331 0.19084,-0.19331 h 0.20368 v -0.355019 c -0.0352,-0.005 -0.15613,-0.0158 -0.297,-0.0158 -0.29392,0 -0.49524,0.18509 -0.49524,0.52488 v 0.31255 h -0.32416 v 0.39699 h 0.32416 v 0.73041 c -0.36933,-0.002 -0.5427,-0.0167 -0.67424,-0.14862 -0.18021,-0.17935 -0.14764,-0.46743 -0.14764,-0.90409 0,-0.59088 -0.0605,-1.01641 0.53253,-1.04679 0.13625,-0.005 0.17622,-0.006 0.51919,-0.006 z"
       sodipodi:nodetypes="scsscsccccsccsccccccccsccssccccccscsc" />
    <g
       id="g30096"
       transform="matrix(0.00368134,0,0,0.00368134,-88.210626,77.957875)"
       style="fill:#ff084d;fill-opacity:1;stroke-width:71.8715">
      <g
         id="g30041"
         style="fill:#ff084d;fill-opacity:1;stroke-width:71.8715">
        <g
           id="g30039"
           style="fill:#ff084d;fill-opacity:1;stroke-width:71.8715">
          <path
             d="m 499.66,376.96 -71.68,-71.68 c -25.6,-25.6 -69.12,-15.359 -79.36,17.92 -7.68,23.041 -33.28,35.841 -56.32,30.72 -51.2,-12.8 -120.32,-79.36 -133.12,-133.12 -7.68,-23.041 7.68,-48.641 30.72,-56.32 33.28,-10.24 43.52,-53.76 17.92,-79.36 L 136.14,13.44 c -20.48,-17.92 -51.2,-17.92 -69.12,0 L 18.38,62.08 c -48.64,51.2 5.12,186.88 125.44,307.2 120.32,120.32 256,176.641 307.2,125.44 l 48.64,-48.64 c 17.921,-20.48 17.921,-51.2 0,-69.12 z"
             id="path30037"
             style="fill:#ff084d;fill-opacity:1;stroke-width:71.8715" />
        </g>
      </g>
      <g
         id="g30043"
         style="fill:#ff084d;fill-opacity:1;stroke-width:71.8715" />
      <g
         id="g30045"
         style="fill:#ff084d;fill-opacity:1;stroke-width:71.8715" />
      <g
         id="g30047"
         style="fill:#ff084d;fill-opacity:1;stroke-width:71.8715" />
      <g
         id="g30049"
         style="fill:#ff084d;fill-opacity:1;stroke-width:71.8715" />
      <g
         id="g30051"
         style="fill:#ff084d;fill-opacity:1;stroke-width:71.8715" />
      <g
         id="g30053"
         style="fill:#ff084d;fill-opacity:1;stroke-width:71.8715" />
      <g
         id="g30055"
         style="fill:#ff084d;fill-opacity:1;stroke-width:71.8715" />
      <g
         id="g30057"
         style="fill:#ff084d;fill-opacity:1;stroke-width:71.8715" />
      <g
         id="g30059"
         style="fill:#ff084d;fill-opacity:1;stroke-width:71.8715" />
      <g
         id="g30061"
         style="fill:#ff084d;fill-opacity:1;stroke-width:71.8715" />
      <g
         id="g30063"
         style="fill:#ff084d;fill-opacity:1;stroke-width:71.8715" />
      <g
         id="g30065"
         style="fill:#ff084d;fill-opacity:1;stroke-width:71.8715" />
      <g
         id="g30067"
         style="fill:#ff084d;fill-opacity:1;stroke-width:71.8715" />
      <g
         id="g30069"
         style="fill:#ff084d;fill-opacity:1;stroke-width:71.8715" />
      <g
         id="g30071"
         style="fill:#ff084d;fill-opacity:1;stroke-width:71.8715" />
    </g>
    <g
       id="g30166"
       transform="matrix(0.00556645,0,0,0.00556645,-88.472169,73.992166)"
       style="fill:#ff084d;fill-opacity:1;stroke-width:47.5319">
      <g
         id="g30102"
         style="fill:#ff084d;fill-opacity:1;stroke-width:47.5319">
        <g
           id="g30100"
           style="fill:#ff084d;fill-opacity:1;stroke-width:47.5319">
          <path
             d="m 229.376,271.616 c -4.096,2.56 -8.704,3.584 -12.8,3.584 -4.096,0 -8.704,-1.024 -12.8,-3.584 L 0,147.2 v 165.376 c 0,35.328 28.672,64 64,64 h 305.664 c 35.328,0 64,-28.672 64,-64 V 147.2 Z"
             id="path30098"
             style="fill:#ff084d;fill-opacity:1;stroke-width:47.5319" />
        </g>
      </g>
      <g
         id="g30108"
         style="fill:#ff084d;fill-opacity:1;stroke-width:47.5319">
        <g
           id="g30106"
           style="fill:#ff084d;fill-opacity:1;stroke-width:47.5319">
          <path
             d="M 369.664,57.088 H 64 c -30.208,0 -55.808,21.504 -61.952,50.176 L 217.088,238.336 431.616,107.264 C 425.472,78.592 399.872,57.088 369.664,57.088 Z"
             id="path30104"
             style="fill:#ff084d;fill-opacity:1;stroke-width:47.5319" />
        </g>
      </g>
      <g
         id="g30110"
         style="fill:#ff084d;fill-opacity:1;stroke-width:47.5319" />
      <g
         id="g30112"
         style="fill:#ff084d;fill-opacity:1;stroke-width:47.5319" />
      <g
         id="g30114"
         style="fill:#ff084d;fill-opacity:1;stroke-width:47.5319" />
      <g
         id="g30116"
         style="fill:#ff084d;fill-opacity:1;stroke-width:47.5319" />
      <g
         id="g30118"
         style="fill:#ff084d;fill-opacity:1;stroke-width:47.5319" />
      <g
         id="g30120"
         style="fill:#ff084d;fill-opacity:1;stroke-width:47.5319" />
      <g
         id="g30122"
         style="fill:#ff084d;fill-opacity:1;stroke-width:47.5319" />
      <g
         id="g30124"
         style="fill:#ff084d;fill-opacity:1;stroke-width:47.5319" />
      <g
         id="g30126"
         style="fill:#ff084d;fill-opacity:1;stroke-width:47.5319" />
      <g
         id="g30128"
         style="fill:#ff084d;fill-opacity:1;stroke-width:47.5319" />
      <g
         id="g30130"
         style="fill:#ff084d;fill-opacity:1;stroke-width:47.5319" />
      <g
         id="g30132"
         style="fill:#ff084d;fill-opacity:1;stroke-width:47.5319" />
      <g
         id="g30134"
         style="fill:#ff084d;fill-opacity:1;stroke-width:47.5319" />
      <g
         id="g30136"
         style="fill:#ff084d;fill-opacity:1;stroke-width:47.5319" />
      <g
         id="g30138"
         style="fill:#ff084d;fill-opacity:1;stroke-width:47.5319" />
    </g>
    <path
       id="path1426"
       style="fill:#ff084d;fill-opacity:1;stroke-width:5.64444"
       d="m -80.081467,81.923987 c -0.20528,6.1e-5 -0.41048,0.0033 -0.528651,0.0083 -0.20769,0.01 -0.390779,0.06006 -0.53847,0.207739 -0.246837,0.24683 -0.215489,0.579338 -0.215489,1.067118 0,0.49922 -0.0276,0.824029 0.215489,1.067118 0.247783,0.247682 0.585121,0.215492 1.067121,0.215492 0.494519,0 0.665398,2.4e-5 0.840258,-0.0677 0.237739,-0.0923 0.417057,-0.304572 0.434599,-0.686264 0.0111,-0.23624 0.0105,-0.82094 0,-1.0573 -0.0212,-0.450558 -0.263128,-0.723968 -0.746209,-0.746207 -0.118068,-0.005 -0.323358,-0.0083 -0.528648,-0.0083 z m -0.210842,0.228409 c 0.05399,-1.71e-4 0.12127,10e-7 0.206706,0 l 0.0041,0.0026 c 0.56992,0 1.017024,-0.05964 1.043863,0.533301 0.006,0.13528 0.0083,0.175865 0.0083,0.518315 -1.11e-4,0.52852 0.0097,0.744557 -0.149344,0.904338 -0.161811,0.161809 -0.386051,0.147278 -0.905372,0.147278 -0.534729,0 -0.748911,0.0082 -0.90537,-0.148828 -0.180211,-0.179351 -0.147796,-0.467679 -0.147796,-0.904339 0,-0.59088 -0.0607,-1.016077 0.532267,-1.046448 0.102188,-0.0037 0.150284,-0.0057 0.312642,-0.0062 z m 0.530202,0.379822 c -0.188648,0 -0.340548,0.153386 -0.340548,0.341065 0,0.02701 0.0022,0.05279 0.0078,0.07751 -0.28325,-0.01385 -0.533858,-0.149705 -0.702283,-0.356567 -0.02936,0.05104 -0.04651,0.109786 -0.04651,0.172599 0,0.118009 0.06076,0.222589 0.151411,0.283187 -0.05478,-10e-4 -0.108496,-0.01738 -0.153996,-0.04237 v 0.0041 c 0,0.165586 0.11793,0.303144 0.272852,0.334863 -0.02777,0.0076 -0.05803,0.01085 -0.0894,0.01085 -0.02181,0 -0.04397,-0.0011 -0.0646,-0.0057 0.04411,0.134907 0.169431,0.23394 0.318328,0.237195 -0.115932,0.09065 -0.262845,0.145728 -0.422198,0.145728 -0.02791,0 -0.05485,-0.0013 -0.08165,-0.0047 0.150974,0.0973 0.330023,0.152962 0.522965,0.152962 0.601332,0 0.993071,-0.501897 0.968417,-1.013892 0.06759,-0.04799 0.124201,-0.107757 0.170532,-0.176733 -0.06184,0.02708 -0.127153,0.04501 -0.195855,0.05374 0.07064,-0.04218 0.124516,-0.108768 0.149863,-0.188618 -0.06586,0.03927 -0.138512,0.06717 -0.216009,0.08268 -0.06254,-0.06662 -0.151847,-0.108004 -0.249078,-0.108004 z" />
  </g>
</svg>
