<?xml version="1.0" encoding="UTF-8" standalone="no"?>
<svg
   width="88.810799mm"
   height="87.602097mm"
   viewBox="0 0 88.8108 87.602097"
   version="1.1"
   id="svg8"
   inkscape:version="1.1.1 (3bf5ae0d25, 2021-09-20, custom)"
   sodipodi:docname="logo.svg"
   inkscape:export-filename="/run/media/gobadri/930.5 GB VO/Work/MedicAd/merkato/mrkto.png"
   inkscape:export-xdpi="72"
   inkscape:export-ydpi="72"
   xmlns:inkscape="http://www.inkscape.org/namespaces/inkscape"
   xmlns:sodipodi="http://sodipodi.sourceforge.net/DTD/sodipodi-0.dtd"
   xmlns="http://www.w3.org/2000/svg"
   xmlns:svg="http://www.w3.org/2000/svg"
   xmlns:rdf="http://www.w3.org/1999/02/22-rdf-syntax-ns#"
   xmlns:cc="http://creativecommons.org/ns#"
   xmlns:dc="http://purl.org/dc/elements/1.1/">
  <defs
     id="defs2" />
  <sodipodi:namedview
     id="base"
     pagecolor="#ffffff"
     bordercolor="#666666"
     borderopacity="1.0"
     inkscape:pageopacity="0.0"
     inkscape:pageshadow="2"
     inkscape:zoom="0.24748737"
     inkscape:cx="-725.28954"
     inkscape:cy="488.91384"
     inkscape:document-units="mm"
     inkscape:current-layer="layer1"
     inkscape:document-rotation="0"
     showgrid="false"
     inkscape:window-width="1920"
     inkscape:window-height="1046"
     inkscape:window-x="0"
     inkscape:window-y="34"
     inkscape:window-maximized="1"
     showguides="false"
     inkscape:guide-bbox="true"
     inkscape:pagecheckerboard="0">
    <sodipodi:guide
       position="50.047212,36.152585"
       orientation="0.8660254,-0.5"
       id="guide943" />
  </sodipodi:namedview>
  <metadata
     id="metadata5">
    <rdf:RDF>
      <cc:Work
         rdf:about="">
        <dc:format>image/svg+xml</dc:format>
        <dc:type
           rdf:resource="http://purl.org/dc/dcmitype/StillImage" />
      </cc:Work>
    </rdf:RDF>
  </metadata>
  <g
     inkscape:label="Layer 1"
     inkscape:groupmode="layer"
     id="layer1"
     transform="translate(3910.0001,-249.79102)">
    <path
       style="fill:none;stroke:#000000;stroke-width:15;stroke-linecap:butt;stroke-linejoin:miter;stroke-miterlimit:4;stroke-dasharray:none;stroke-opacity:1"
       d="m -346.01044,80.330089 15.78753,9.11493 v 18.888551"
       id="path833" />
    <path
       style="fill:none;stroke:#000000;stroke-width:15;stroke-linecap:butt;stroke-linejoin:miter;stroke-miterlimit:4;stroke-dasharray:none;stroke-opacity:1"
       d="m -314.43538,136.33705 -15.78753,-9.11493 v -18.88855"
       id="path835" />
    <path
       id="path839"
       style="fill:none;stroke:#000000;stroke-width:15;stroke-linecap:butt;stroke-linejoin:miter;stroke-miterlimit:4;stroke-dasharray:none;stroke-opacity:1"
       d="m -314.43538,368.84616 -15.78753,-9.11493 v -18.88855 m -15.78753,-28.00348 15.78753,9.11493 v 18.88855" />
    <path
       id="path842"
       style="fill:none;stroke:#000000;stroke-width:15;stroke-linecap:butt;stroke-linejoin:miter;stroke-miterlimit:4;stroke-dasharray:none;stroke-opacity:1"
       d="m -287.35822,368.84616 -15.78753,-9.11493 v -18.88855 m -15.78753,-28.00348 15.78753,9.11493 v 18.88855" />
    <path
       id="path844"
       style="fill:none;stroke:#000000;stroke-width:15;stroke-linecap:butt;stroke-linejoin:miter;stroke-miterlimit:4;stroke-dasharray:none;stroke-opacity:1"
       d="m -260.28106,368.84616 -15.78753,-9.11493 v -18.88855 m -15.78753,-28.00348 15.78753,9.11493 v 18.88855" />
    <path
       style="fill:none;stroke:#000000;stroke-width:15;stroke-linecap:butt;stroke-linejoin:miter;stroke-miterlimit:4;stroke-dasharray:none;stroke-opacity:1"
       d="m -696.12775,80.330089 15.78753,9.11493 v 18.888551"
       id="path846" />
    <path
       style="fill:none;stroke:#000000;stroke-width:15;stroke-linecap:butt;stroke-linejoin:miter;stroke-miterlimit:4;stroke-dasharray:none;stroke-opacity:1"
       d="m -672.44646,131.77958 -7.89376,-4.55746 v -18.88855"
       id="path848"
       sodipodi:nodetypes="ccc" />
    <path
       id="path852"
       style="fill:none;stroke:#000000;stroke-width:15;stroke-linecap:butt;stroke-linejoin:miter;stroke-miterlimit:4;stroke-dasharray:none;stroke-opacity:1"
       d="m -672.44647,366.56743 -7.89376,-4.55746 v -18.88855 m -15.78753,-28.00349 15.78753,9.11493 v 18.88856" />
    <path
       id="path855"
       style="fill:none;stroke:#000000;stroke-width:15;stroke-linecap:butt;stroke-linejoin:miter;stroke-miterlimit:4;stroke-dasharray:none;stroke-opacity:1"
       d="m -646.43475,366.74632 -7.89376,-4.55746 v -18.88855 m -15.78753,-28.00349 15.78753,9.11493 v 18.88856" />
    <path
       id="path857"
       style="fill:none;stroke:#000000;stroke-width:15;stroke-linecap:butt;stroke-linejoin:miter;stroke-miterlimit:4;stroke-dasharray:none;stroke-opacity:1"
       d="m -620.42303,366.74632 -7.89376,-4.55746 v -18.88855 m -15.78753,-28.00349 15.78753,9.11493 v 18.88856" />
    <path
       id="path863"
       style="fill:none;stroke:#000000;stroke-width:15;stroke-linecap:butt;stroke-linejoin:miter;stroke-miterlimit:4;stroke-dasharray:none;stroke-opacity:1"
       d="m -3268.3527,307.9137 -7.8937,-4.55746 v -18.88855 m -15.7875,-28.00349 15.7875,9.11493 v 18.88856 m -18.118,23.44601 -7.8937,-4.55746 v -18.88855 m -15.7876,-28.00349 15.7876,9.11493 v 18.88856 m -18.118,23.26712 -7.8938,-4.55746 V 284.2888 m -15.7875,-28.00349 15.7875,9.11493 v 18.88856" />
    <text
       xml:space="preserve"
       style="font-size:20.583px;line-height:1.25;font-family:sans-serif;letter-spacing:0px;stroke-width:0.264583"
       x="-3351.4053"
       y="340.26971"
       id="text877"><tspan
         sodipodi:role="line"
         id="tspan875"
         x="-3351.4053"
         y="340.26971"
         style="font-style:normal;font-variant:normal;font-weight:600;font-stretch:normal;font-family:Poppins;-inkscape-font-specification:'Poppins Semi-Bold';stroke-width:0.264583">merkato</tspan></text>
    <path
       style="color:#000000;font-style:normal;font-variant:normal;font-weight:normal;font-stretch:normal;font-size:medium;line-height:normal;font-family:sans-serif;font-variant-ligatures:normal;font-variant-position:normal;font-variant-caps:normal;font-variant-numeric:normal;font-variant-alternates:normal;font-variant-east-asian:normal;font-feature-settings:normal;font-variation-settings:normal;text-indent:0;text-align:start;text-decoration:none;text-decoration-line:none;text-decoration-style:solid;text-decoration-color:#000000;letter-spacing:normal;word-spacing:normal;text-transform:none;writing-mode:lr-tb;direction:ltr;text-orientation:mixed;dominant-baseline:auto;baseline-shift:baseline;text-anchor:start;white-space:normal;shape-padding:0;shape-margin:0;inline-size:0;clip-rule:nonzero;display:inline;overflow:visible;visibility:visible;isolation:auto;mix-blend-mode:normal;color-interpolation:sRGB;color-interpolation-filters:linearRGB;solid-color:#000000;solid-opacity:1;vector-effect:none;fill:#ffffff;fill-opacity:1;fill-rule:nonzero;stroke:none;stroke-linecap:butt;stroke-linejoin:miter;stroke-miterlimit:4;stroke-dasharray:none;stroke-dashoffset:0;stroke-opacity:1;color-rendering:auto;image-rendering:auto;shape-rendering:auto;text-rendering:auto;enable-background:accumulate;stop-color:#000000"
       d="m -3899.6968,249.79102 -7.5,12.99023 12.0371,6.94922 v 14.55859 23.21875 l 11.6446,6.72266 7.5,-12.99024 -4.1446,-2.39257 v -14.5586 -20.73828 l 11.0118,6.35938 v 14.55664 23.21875 l 11.6445,6.72265 7.5,-12.99023 -4.1445,-2.39258 V 284.4668 263.55078 l 11.0117,6.35938 v 14.55664 23.21875 l 11.6445,6.72265 7.5,-12.99023 -4.1445,-2.39258 V 284.4668 261.24805 l -19.5371,-11.2793 -6.502,11.26367 -19.5097,-11.26367 -6.4747,11.21484 v -0.11328 z"
       id="path897" />
    <path
       style="color:#000000;font-style:normal;font-variant:normal;font-weight:normal;font-stretch:normal;font-size:medium;line-height:normal;font-family:sans-serif;font-variant-ligatures:normal;font-variant-position:normal;font-variant-caps:normal;font-variant-numeric:normal;font-variant-alternates:normal;font-variant-east-asian:normal;font-feature-settings:normal;font-variation-settings:normal;text-indent:0;text-align:start;text-decoration:none;text-decoration-line:none;text-decoration-style:solid;text-decoration-color:#000000;letter-spacing:normal;word-spacing:normal;text-transform:none;writing-mode:lr-tb;direction:ltr;text-orientation:mixed;dominant-baseline:auto;baseline-shift:baseline;text-anchor:start;white-space:normal;shape-padding:0;shape-margin:0;inline-size:0;clip-rule:nonzero;display:inline;overflow:visible;visibility:visible;opacity:1;isolation:auto;mix-blend-mode:normal;color-interpolation:sRGB;color-interpolation-filters:linearRGB;solid-color:#000000;solid-opacity:1;vector-effect:none;fill:#ff0000;fill-opacity:1;fill-rule:nonzero;stroke:none;stroke-linecap:butt;stroke-linejoin:miter;stroke-miterlimit:4;stroke-dasharray:none;stroke-dashoffset:0;stroke-opacity:1;color-rendering:auto;image-rendering:auto;shape-rendering:auto;text-rendering:auto;enable-background:accumulate;stop-color:#000000;stop-opacity:1"
       d="m -2896.6681,402.12654 -7.5,12.99023 12.0371,6.94922 v 14.5586 23.21875 l 11.6445,6.72265 7.5,-12.99023 -4.1445,-2.39258 v -14.55859 -23.21875 z"
       id="path932" />
    <path
       id="path880"
       style="font-style:normal;font-variant:normal;font-weight:600;font-stretch:normal;font-size:20.583px;line-height:1.25;font-family:Poppins;-inkscape-font-specification:'Poppins Semi-Bold';letter-spacing:0px;fill:#ffffff;fill-opacity:1;stroke-width:0.264583"
       d="m -3883.6287,325.14156 c -1.0141,0 -1.9349,0.24978 -2.763,0.74955 -0.8142,0.49978 -1.4639,1.21384 -1.9495,2.142 -0.4712,0.92817 -0.7067,1.99152 -0.7067,3.19096 0,1.21373 0.2355,2.29215 0.7067,3.2346 0.4856,0.92813 1.1353,1.64923 1.9495,2.1633 0.8281,0.51404 1.7417,0.77115 2.7414,0.77115 0.8852,0 1.6639,-0.17854 2.3349,-0.5355 0.6853,-0.37128 1.2207,-0.83539 1.6062,-1.3923 v 1.73476 h 3.0201 v -11.86606 h -3.0201 v 1.69229 c -0.3998,-0.54259 -0.9349,-0.9927 -1.6062,-1.34969 -0.6569,-0.357 -1.4281,-0.53506 -2.3133,-0.53506 z m 34.9698,0 c -1.1704,1.4e-4 -2.2056,0.24993 -3.1051,0.74955 -0.8995,0.49978 -1.5993,1.21384 -2.099,2.142 -0.4997,0.92817 -0.7494,2.00599 -0.7494,3.23401 0,1.21374 0.2497,2.28485 0.7494,3.213 0.5141,0.92817 1.2209,1.6488 2.1203,2.16286 0.9142,0.49975 1.9426,0.75014 3.0849,0.75014 1.4135,0 2.6055,-0.36449 3.5766,-1.09274 0.9707,-0.74253 1.6279,-1.68455 1.9707,-2.82691 h -3.2346 c -0.4713,0.95671 -1.2634,1.43476 -2.3774,1.43476 -0.771,0 -1.4204,-0.2426 -1.9488,-0.72811 -0.5283,-0.48549 -0.8282,-1.15668 -0.8995,-2.01345 h 8.6742 c 0.057,-0.3427 0.085,-0.72827 0.085,-1.15665 0,-1.15663 -0.2506,-2.17771 -0.7503,-3.063 -0.4854,-0.89961 -1.1776,-1.59185 -2.0773,-2.07736 -0.8849,-0.48534 -1.8913,-0.72795 -3.0189,-0.7281 z m 21.3657,0 c -1.1424,0 -2.178,0.25653 -3.1062,0.77056 -0.9284,0.49981 -1.6636,1.21372 -2.2059,2.14185 -0.5285,0.92816 -0.7926,1.99942 -0.7926,3.21315 0,1.21374 0.2572,2.28485 0.7711,3.213 0.5284,0.92817 1.2493,1.6488 2.1632,2.16286 0.9137,0.49974 1.9416,0.75014 3.084,0.75014 1.1567,0 2.1995,-0.2504 3.1276,-0.75014 0.9422,-0.51406 1.685,-1.23469 2.2277,-2.16286 0.5567,-0.92815 0.835,-1.99926 0.835,-3.213 0,-1.21373 -0.2711,-2.28499 -0.8134,-3.21315 -0.5284,-0.92813 -1.2572,-1.64204 -2.1854,-2.14185 -0.9281,-0.51403 -1.9629,-0.77056 -3.1051,-0.77056 z m -76.2175,0.021 c -0.7279,0 -1.3992,0.14297 -2.0131,0.42854 -0.5997,0.2856 -1.0922,0.67847 -1.4777,1.17825 v -1.43534 h -2.9986 v 11.86606 h 2.9986 v -6.55411 c 0,-0.92816 0.2354,-1.63474 0.7065,-2.12026 0.4855,-0.49977 1.1425,-0.7497 1.9707,-0.7497 0.8139,0 1.4563,0.24993 1.9274,0.7497 0.4713,0.48552 0.7074,1.1921 0.7074,2.12026 v 6.55411 h 2.9982 v -6.55411 c 0,-0.92816 0.2354,-1.63474 0.7068,-2.12026 0.4854,-0.49977 1.1352,-0.7497 1.9493,-0.7497 0.8139,0 1.4565,0.24993 1.9279,0.7497 0.4711,0.48552 0.7065,1.1921 0.7065,2.12026 v 6.55411 h 2.9991 v -6.96121 c 0,-1.59928 -0.4502,-2.8413 -1.35,-3.72661 -0.8851,-0.89959 -2.056,-1.34969 -3.5122,-1.34969 -0.8568,0 -1.6564,0.20703 -2.399,0.62115 -0.7282,0.41407 -1.2853,0.96385 -1.671,1.64925 -0.3998,-0.72824 -0.9634,-1.28471 -1.6916,-1.67026 -0.7283,-0.39984 -1.5567,-0.60014 -2.4852,-0.60014 z m 35.8129,0 c -0.7997,0 -1.5134,0.17865 -2.142,0.53564 -0.6137,0.357 -1.1134,0.84937 -1.4991,1.47766 v -1.84185 h -2.999 v 11.86606 h 2.999 v -5.91151 c 0,-1.0995 0.2354,-1.87062 0.7068,-2.3133 0.4853,-0.44265 1.1992,-0.6642 2.1417,-0.6642 h 0.7926 z m 8.9962,0.17145 -3.9844,5.0334 v -5.03326 h -2.9985 v 11.86592 h 2.9985 v -5.05486 l 4.0267,5.05486 h 3.8981 l -5.2689,-5.91151 5.2266,-5.95455 z m 16.8002,0 v 2.463 h 1.4137 v 5.71891 c 0,2.45604 1.2638,3.68415 3.791,3.68415 h 1.8849 v -2.52736 h -1.392 c -0.4571,0 -0.7856,-0.0857 -0.9855,-0.25709 -0.1855,-0.18564 -0.2783,-0.47829 -0.2783,-0.87811 v -5.7405 h 2.6558 v -2.463 h -2.6558 -3.0201 z m -6.8427,2.2704 c 0.7853,0 1.4494,0.23545 1.9917,0.70665 0.5424,0.45697 0.8209,1.07125 0.8355,1.8423 h -5.6329 c 0.1142,-0.79964 0.4211,-1.42066 0.9208,-1.86331 0.5141,-0.45696 1.1423,-0.68564 1.8849,-0.68564 z m 21.4078,0.15014 c 0.8565,0 1.5778,0.30714 2.1632,0.92115 0.5997,0.59972 0.8998,1.46333 0.8998,2.59141 0,0.7568 -0.1431,1.39947 -0.4287,1.9278 -0.2854,0.52833 -0.6712,0.92795 -1.1566,1.19926 -0.4713,0.25702 -0.9783,0.3855 -1.521,0.3855 -0.8565,0 -1.5703,-0.29997 -2.1416,-0.8997 -0.557,-0.61401 -0.8353,-1.4848 -0.8353,-2.61286 0,-1.12808 0.2856,-1.99169 0.8566,-2.59141 0.5857,-0.61401 1.3068,-0.92115 2.1636,-0.92115 z m -55.5212,0.0214 c 0.5567,0 1.0775,0.14251 1.563,0.4281 0.4856,0.27131 0.8712,0.67137 1.1566,1.1997 0.2858,0.51404 0.4287,1.13506 0.4287,1.86331 0,0.72825 -0.1429,1.35657 -0.4287,1.8849 -0.2854,0.51404 -0.671,0.91408 -1.1566,1.19969 -0.4855,0.27131 -1.0063,0.40651 -1.563,0.40651 -0.5427,0 -1.0571,-0.14253 -1.5425,-0.4281 -0.4711,-0.2856 -0.8568,-0.69223 -1.1566,-1.22056 -0.2856,-0.54262 -0.4282,-1.17154 -0.4282,-1.88549 0,-0.71396 0.1426,-1.32768 0.4282,-1.84171 0.2998,-0.52836 0.6855,-0.92794 1.1566,-1.19925 0.4711,-0.27131 0.9854,-0.4071 1.5425,-0.4071 z" />
  </g>
</svg>
